<?xml version="1.0" standalone="no"?>
<!DOCTYPE svg PUBLIC "-//W3C//DTD SVG 20010904//EN"
 "http://www.w3.org/TR/2001/REC-SVG-20010904/DTD/svg10.dtd">
<svg version="1.0" xmlns="http://www.w3.org/2000/svg"
 width="700.000000pt" height="700.000000pt" viewBox="0 0 700.000000 700.000000"
 preserveAspectRatio="xMidYMid meet">
<metadata>
Created by potrace 1.11, written by Peter Selinger 2001-2013
</metadata>
<g transform="translate(0.000000,700.000000) scale(0.100000,-0.100000)"
fill="#000000" stroke="none">
<path d="M3278 6995 c-1 -1 -41 -6 -88 -9 -47 -4 -98 -9 -115 -11 -16 -2 -48
-6 -70 -9 -652 -89 -1322 -400 -1830 -850 -382 -339 -698 -782 -904 -1269 -66
-155 -147 -399 -167 -500 -2 -10 -6 -27 -9 -37 -3 -10 -8 -29 -10 -42 -3 -13
-14 -68 -25 -123 -42 -212 -55 -370 -54 -650 0 -348 22 -539 95 -830 38 -155
104 -359 144 -450 7 -16 25 -59 40 -95 120 -287 341 -640 563 -898 84 -99 275
-290 374 -374 396 -340 890 -600 1390 -732 73 -19 148 -38 166 -41 18 -3 63
-12 100 -19 37 -8 94 -18 127 -21 33 -4 68 -9 78 -11 63 -11 242 -19 432 -19
259 1 344 8 575 46 371 62 791 211 1114 398 49 28 91 51 93 51 15 0 378 255
419 294 6 6 35 31 64 56 126 106 260 241 412 418 193 222 420 601 548 913 98
238 189 561 215 759 3 25 8 52 10 60 3 13 7 41 21 175 9 77 11 521 4 600 -17
175 -22 220 -25 225 -2 3 -7 33 -10 65 -4 33 -9 63 -11 66 -2 4 -6 23 -10 44
-12 75 -65 278 -104 400 -163 499 -450 977 -815 1354 -493 509 -1156 873
-1835 1005 -122 24 -155 29 -265 42 -27 3 -68 8 -90 11 -46 5 -541 13 -547 8z
m547 -540 c194 -25 210 -27 216 -31 3 -2 19 -6 35 -8 282 -52 631 -183 899
-339 74 -43 267 -166 275 -176 3 -3 30 -25 60 -47 30 -23 65 -50 76 -60 12
-11 46 -39 75 -64 154 -130 371 -377 497 -565 251 -376 408 -770 479 -1197 38
-236 41 -695 4 -923 -11 -71 -22 -139 -25 -150 -119 -536 -328 -947 -684
-1345 -447 -499 -983 -823 -1577 -954 -75 -16 -94 -19 -195 -35 -217 -34 -695
-37 -882 -6 -353 59 -566 122 -825 245 -392 187 -744 463 -1047 822 -303 358
-506 762 -604 1198 -33 147 -37 171 -57 335 -14 110 -14 635 -1 700 8 41 15
82 21 130 12 101 51 268 94 409 134 433 384 837 735 1190 239 240 439 394 706
541 321 178 707 297 1070 331 41 3 76 8 78 9 10 9 495 1 577 -10z"/>
<path d="M1940 3525 l0 -1945 265 0 265 0 0 678 0 678 58 53 c31 30 140 134
242 231 299 286 336 319 344 308 4 -3 272 -381 383 -538 87 -122 506 -719 791
-1127 l197 -282 339 -1 338 0 -17 26 c-14 22 -730 1000 -1437 1964 l-239 325
134 130 c158 155 591 573 685 664 79 75 457 440 662 640 l145 140 -347 1 -347
0 -627 -622 c-861 -857 -1288 -1278 -1295 -1278 -7 0 -7 -8 -8 1043 l-1 857
-265 0 -265 0 0 -1945z"/>
</g>
</svg>
